<svg id="Layer_1" data-name="Layer 1" xmlns="http://www.w3.org/2000/svg" viewBox="0 0 104.78 36.28"><defs><style>.cls-1,.cls-2{fill:#0080ff;}.cls-2{fill-rule:evenodd;}</style></defs><title>digital-ocean</title><g id="g3897"><path class="cls-1" d="M25,47.72v-7a11.08,11.08,0,0,0,10.29-15.1,10.46,10.46,0,0,0-6.22-6.21A11.09,11.09,0,0,0,14,29.72H7A18.07,18.07,0,0,1,30.74,12.61,17.43,17.43,0,0,1,42.11,24,18.07,18.07,0,0,1,25,47.72Z" transform="translate(-7 -11.72)"/><polygon class="cls-2" points="18.02 22.1 18.02 22.1 18.02 29.06 11.06 29.06 11.06 22.1 11.06 22.1 18.02 22.1"/><polygon class="cls-2" points="11.06 29.06 11.06 34.39 11.06 34.39 5.74 34.39 5.74 34.39 5.74 29.06 11.06 29.06"/><path class="cls-2" d="M12.74,40.78H8.27V36.31h4.47Z" transform="translate(-7 -11.72)"/></g><g id="g4226"><path class="cls-1" d="M60.75,13.87a10,10,0,0,0-5.89-1.65h-5v16H54.9a9.65,9.65,0,0,0,5.89-1.75,6.53,6.53,0,0,0,2.05-2.55,9.67,9.67,0,0,0,.71-3.77,9.48,9.48,0,0,0-.71-3.74A5.79,5.79,0,0,0,60.75,13.87Zm-8,1h1.58a8.16,8.16,0,0,1,4.31,1c1.22.75,1.83,2.15,1.83,4.17s-.61,3.55-1.83,4.34h0a7.77,7.77,0,0,1-4.27,1H52.78Z" transform="translate(-7 -11.72)"/><path class="cls-1" d="M67,12a1.82,1.82,0,0,0-1.26.5,1.67,1.67,0,0,0-.5,1.22,1.8,1.8,0,0,0,.5,1.26,1.75,1.75,0,0,0,1.26.5,1.85,1.85,0,0,0,1.25-.5,1.7,1.7,0,0,0,.51-1.26,1.64,1.64,0,0,0-.51-1.22A1.85,1.85,0,0,0,67,12Z" transform="translate(-7 -11.72)"/><rect class="cls-1" x="58.6" y="5.2" width="2.84" height="11.28"/><path class="cls-1" d="M78.74,17.85a4.3,4.3,0,0,0-2.83-1.22A5.06,5.06,0,0,0,72,18.25a5.61,5.61,0,0,0-1.54,4.06,5.73,5.73,0,0,0,1.5,4,5.25,5.25,0,0,0,3.88,1.58,4.35,4.35,0,0,0,2.8-.9v.25a3,3,0,0,1-.75,2.16,2.78,2.78,0,0,1-2,.75c-1.29,0-2.12-.5-3.12-1.87l-1.94,1.87,0,.07a7,7,0,0,0,1.91,1.69,5.71,5.71,0,0,0,3.16.83,5.38,5.38,0,0,0,4-1.55,5.61,5.61,0,0,0,1.51-4.09V16.88h-2.8v1ZM78,24.53a2.41,2.41,0,0,1-1.94.83,2.5,2.5,0,0,1-1.94-.83,3.17,3.17,0,0,1-.72-2.19,3.4,3.4,0,0,1,.72-2.22,2.37,2.37,0,0,1,1.94-.83,2.49,2.49,0,0,1,1.94.83,3.26,3.26,0,0,1,.75,2.22A3.18,3.18,0,0,1,78,24.53Z" transform="translate(-7 -11.72)"/><rect class="cls-1" x="76.95" y="5.2" width="2.84" height="11.28"/><path class="cls-1" d="M85.39,12a1.8,1.8,0,0,0-1.26.5,1.67,1.67,0,0,0-.5,1.22,1.8,1.8,0,0,0,.5,1.26,1.73,1.73,0,0,0,1.26.5,1.87,1.87,0,0,0,1.25-.5,1.7,1.7,0,0,0,.51-1.26,1.64,1.64,0,0,0-.51-1.22A1.8,1.8,0,0,0,85.39,12Z" transform="translate(-7 -11.72)"/><path class="cls-1" d="M93,13.87H90.2v3.05H88.58V19.5H90.2v4.67a4.54,4.54,0,0,0,.86,3.13,4.15,4.15,0,0,0,3,.89c.47,0,.94,0,1.37,0h.14V25.57l-1,0a1.75,1.75,0,0,1-1.33-.36A2.49,2.49,0,0,1,93,23.74V19.47h2.66V16.88H93Z" transform="translate(-7 -11.72)"/><rect class="cls-1" x="101.94" y="0.46" width="2.84" height="16.02"/><path class="cls-1" d="M105.39,17.78h0a5.35,5.35,0,0,0-3.52-1.11,5.8,5.8,0,0,0-2.62.61,4.62,4.62,0,0,0-1.94,1.79l0,0,1.84,1.72a3,3,0,0,1,2.69-1.61,2.19,2.19,0,0,1,1.47.46,1.61,1.61,0,0,1,.58,1.23v.53a7.37,7.37,0,0,0-2.09-.32,5.54,5.54,0,0,0-3.41,1,3.37,3.37,0,0,0-1.29,2.84,3.17,3.17,0,0,0,1.11,2.55,4.2,4.2,0,0,0,2.73.93,4.81,4.81,0,0,0,3-1.18v.93h2.8V20.91A4.36,4.36,0,0,0,105.39,17.78Zm-5,6.11a2.43,2.43,0,0,1,1.37-.33,6.88,6.88,0,0,1,2.15.4v1.11a3.42,3.42,0,0,1-2.44.86,1.87,1.87,0,0,1-1.15-.32,1,1,0,0,1-.4-.83A1,1,0,0,1,100.36,23.89Z" transform="translate(-7 -11.72)"/></g><g id="g4237"><path class="cls-1" d="M75.17,43.69A7.55,7.55,0,0,1,73.74,45h0a2.76,2.76,0,0,1-1.48.39,2.5,2.5,0,0,1-2-.93,3.53,3.53,0,0,1-.83-2.37,3.45,3.45,0,0,1,.83-2.37,2.62,2.62,0,0,1,2-.93A3.8,3.8,0,0,1,75,40.35l1.86-1.79h0a5.69,5.69,0,0,0-8.65-.65,5.68,5.68,0,0,0-1.65,4.2,5.8,5.8,0,0,0,1.65,4.2,5.45,5.45,0,0,0,4,1.69A5.74,5.74,0,0,0,77,45.49Z" transform="translate(-7 -11.72)"/><path class="cls-1" d="M86.84,38a3.84,3.84,0,0,0-1.61-1.33,5.54,5.54,0,0,0-2.34-.5,4.79,4.79,0,0,0-3.84,1.72,6.53,6.53,0,0,0-1.44,4.24,5.92,5.92,0,0,0,1.55,4.2A5.41,5.41,0,0,0,83.25,48a5.75,5.75,0,0,0,4.67-2.29l.07-.08L86.12,43.8h0c-.18.21-.43.43-.64.65a4.4,4.4,0,0,1-.83.61,3.2,3.2,0,0,1-1.43.32,2.75,2.75,0,0,1-1.94-.68A2.61,2.61,0,0,1,80.45,43H88l0-1a7.86,7.86,0,0,0-.29-2.08A5.89,5.89,0,0,0,86.84,38Zm-6.21,2.65a2.66,2.66,0,0,1,.75-1.32,2,2,0,0,1,1.48-.58,2,2,0,0,1,1.58.58A2.18,2.18,0,0,1,85,40.67Z" transform="translate(-7 -11.72)"/><path class="cls-1" d="M97.72,37.3h0a5.34,5.34,0,0,0-3.52-1.11,5.8,5.8,0,0,0-2.62.61,4.68,4.68,0,0,0-1.94,1.79l0,0,1.83,1.72a3,3,0,0,1,2.69-1.61,2.24,2.24,0,0,1,1.48.46,1.63,1.63,0,0,1,.57,1.22V41a7.36,7.36,0,0,0-2.08-.32,5.54,5.54,0,0,0-3.41,1,3.33,3.33,0,0,0-1.3,2.84A3.12,3.12,0,0,0,90.58,47a4.13,4.13,0,0,0,2.73.94,4.74,4.74,0,0,0,3-1.19v.94h2.8V40.42A4.3,4.3,0,0,0,97.72,37.3Zm-5,6.1a2.51,2.51,0,0,1,1.36-.32,6.6,6.6,0,0,1,2.15.4v1.11a3.44,3.44,0,0,1-2.44.86,1.87,1.87,0,0,1-1.15-.32,1,1,0,0,1-.39-.83A1,1,0,0,1,92.7,43.4Z" transform="translate(-7 -11.72)"/><path class="cls-1" d="M109.93,37.51a4.19,4.19,0,0,0-3.3-1.32,3.82,3.82,0,0,0-2.73,1v-.69h-2.77V47.71H104V41.5a3.09,3.09,0,0,1,.61-2,2.06,2.06,0,0,1,1.69-.72,1.78,1.78,0,0,1,1.47.65,2.7,2.7,0,0,1,.54,1.76v6.53h2.84V41.18a5.31,5.31,0,0,0-1.19-3.67Z" transform="translate(-7 -11.72)"/><path class="cls-1" d="M56.82,48a8.26,8.26,0,1,1,8.26-8.25A8.25,8.25,0,0,1,56.82,48Zm0-13.61a5.36,5.36,0,1,0,5.35,5.36A5.37,5.37,0,0,0,56.82,34.35Z" transform="translate(-7 -11.72)"/></g></svg>