<svg id="Layer_1" data-name="Layer 1" xmlns="http://www.w3.org/2000/svg" viewBox="0 0 169.96 169.92"><defs><style>.cls-1{fill:#f6981c;}.cls-2{fill:#fff;}.cls-3{fill:#f05620;}</style></defs><title>google-analytics</title><rect class="cls-1" width="169.91" height="169.91" rx="15"/><path class="cls-2" d="M169.91,53.39,154.57,43.05A18,18,0,1,0,119,38.92a17.92,17.92,0,0,0,3.39,10.5L89.16,100.16A17.59,17.59,0,0,0,85,99.64a18,18,0,0,0-11.65,4.28L51.1,91.14a18.84,18.84,0,0,0,.19-2.49,18.06,18.06,0,1,0-34.71,7L0,111v16.37l24.64-22.86a18,18,0,0,0,20.93-2.72l21.67,12.45a17.1,17.1,0,0,0-.34,3.42,18.06,18.06,0,1,0,32.33-11l33-50.38a17.88,17.88,0,0,0,15.9-3.15L170,67.86Z"/><path class="cls-3" d="M148.08,53.15a17.91,17.91,0,0,1-15.9,3.11l-33,50.38a18,18,0,1,1-32.33,11,17.1,17.1,0,0,1,.34-3.42L45.57,101.81a18,18,0,0,1-20.93,2.72L0,127.39v27.53a15,15,0,0,0,15,15H154.91a15,15,0,0,0,15-15h0V67.86Z"/></svg>