<svg id="Capa_1" data-name="Capa 1" xmlns="http://www.w3.org/2000/svg" viewBox="0 0 256 263.54"><defs><style>.cls-1{fill:#ff2d20;}</style></defs><title>Laravel</title><path class="cls-1" d="M255.86,59.62A4.32,4.32,0,0,1,256,60.7v56.57a4.12,4.12,0,0,1-2.07,3.57l-47.48,27.34v54.18a4.14,4.14,0,0,1-2.06,3.58L105.28,263a5,5,0,0,1-.72.3c-.1,0-.18.09-.28.11a4,4,0,0,1-2.12,0c-.11,0-.21-.09-.32-.13a4.43,4.43,0,0,1-.68-.28L2.07,205.94A4.13,4.13,0,0,1,0,202.36V32.66a4.34,4.34,0,0,1,.14-1.09c0-.12.11-.22.15-.34a4.51,4.51,0,0,1,.26-.64,3.37,3.37,0,0,1,.29-.37,4,4,0,0,1,.36-.48,4.4,4.4,0,0,1,.41-.31,3.87,3.87,0,0,1,.45-.35h0L51.61.55a4.17,4.17,0,0,1,4.13,0l49.54,28.53h0a4,4,0,0,1,.46.35,3.9,3.9,0,0,1,.4.31,5.58,5.58,0,0,1,.37.48,3.27,3.27,0,0,1,.28.37,3.61,3.61,0,0,1,.27.64,3.65,3.65,0,0,1,.14.35,3.91,3.91,0,0,1,.15,1.08v106l41.28-23.77V60.69a3.89,3.89,0,0,1,.15-1.07c0-.12.1-.23.14-.35a4.55,4.55,0,0,1,.27-.64c.08-.13.19-.24.28-.37a5.58,5.58,0,0,1,.37-.48c.12-.11.27-.2.4-.31a5.07,5.07,0,0,1,.46-.35h0l49.55-28.53a4.17,4.17,0,0,1,4.13,0l49.54,28.53a4.1,4.1,0,0,1,.47.35c.13.1.27.2.39.31a4.1,4.1,0,0,1,.37.48,3,3,0,0,1,.28.37,3.61,3.61,0,0,1,.27.64C255.76,59.39,255.82,59.5,255.86,59.62Zm-8.12,55.26v-47l-17.34,10-24,13.79v47l41.3-23.77ZM198.19,200V152.9l-23.56,13.46-67.28,38.4v47.51ZM8.26,39.8V200l90.83,52.3V204.76L51.64,177.91h0c-.16-.1-.29-.23-.44-.34s-.28-.19-.39-.3v0a3.37,3.37,0,0,1-.34-.43,3.6,3.6,0,0,1-.31-.4v0a2.69,2.69,0,0,1-.21-.52,2.37,2.37,0,0,1-.2-.46h0a4.25,4.25,0,0,1-.08-.61,3.62,3.62,0,0,1-.06-.46h0V63.57L25.6,49.77,8.26,39.8ZM53.68,8.89,12.4,32.66,53.67,56.42,95,32.65,53.67,8.89Zm21.47,148.3L99.1,143.4V39.8l-17.34,10-24,13.79V167.18ZM202.32,36.93,161.05,60.7l41.27,23.76L243.6,60.69Zm-4.13,54.68L174.24,77.82l-17.34-10v47l23.95,13.78,17.34,10Zm-95,106,60.54-34.57L194,145.78,152.78,122l-47.49,27.34L62,174.29Z" transform="translate(0 0)"/></svg>