<svg id="svg52" xmlns="http://www.w3.org/2000/svg" viewBox="0 0 112.59 34.89"><defs><style>.cls-1{fill:#c02126;}.cls-2{fill:#646569;}</style></defs><title>mailgun</title><g id="g948"><g id="g933"><path id="path32" class="cls-1" d="M93.68,25.86H91.07v1.29a4.63,4.63,0,0,0-3.53-1.57c-3.06,0-5.27,2.54-5.27,6s2.21,5.85,5.25,5.85a4.47,4.47,0,0,0,3.55-1.61v1.57c0,2.34-.92,3.5-2.86,3.5a2.93,2.93,0,0,1-2.52-1.31,4.16,4.16,0,0,1-.43-1.85H82.72c0,3.38,2.11,5.48,5.47,5.48a5.25,5.25,0,0,0,4.52-2.17c.76-1.07,1-2.06,1-4.25Zm-5.66,2c1.87,0,3.16,1.46,3.16,3.59s-1.25,3.66-3.12,3.66-3.12-1.42-3.12-3.61S86.14,27.88,88,27.88Z" transform="translate(-3.71 -12.56)"/><path id="path36" class="cls-2" d="M43.54,25.86V37.11h2.59V31.3c0-2.39.64-3.42,2.09-3.42,1.16,0,1.72,1,1.72,3v6.24h2.58V31.3c0-2.41.65-3.42,2.09-3.42,1.25,0,1.73.84,1.73,3v6.26h2.58V30.16c0-3-1.29-4.6-3.79-4.6a4,4,0,0,0-3.32,1.66,3.43,3.43,0,0,0-3-1.66,3.17,3.17,0,0,0-2.67,1.33v-1Z" transform="translate(-3.71 -12.56)"/><path id="path38" class="cls-2" d="M68.65,25.86v1.31a4.48,4.48,0,0,0-3.51-1.61c-3,0-5.32,2.52-5.32,5.85,0,3.52,2.24,6,5.39,6a4.53,4.53,0,0,0,3.44-1.53v1.19h2.61V25.86Zm-3.05,2c1.89,0,3.21,1.51,3.21,3.61s-1.32,3.64-3.21,3.64-3.13-1.53-3.13-3.64S63.81,27.88,65.6,27.88Z" transform="translate(-3.71 -12.56)"/><path id="path40" class="cls-2" d="M75.91,25.86h-2.6V37.11h2.6Zm-1.27-6.25a1.68,1.68,0,0,0-1.72,1.67,1.7,1.7,0,1,0,3.4,0A1.66,1.66,0,0,0,74.64,19.61Z" transform="translate(-3.71 -12.56)"/><path id="path42" class="cls-2" d="M78.3,16.75h2.61V37.11H78.3Z" transform="translate(-3.71 -12.56)"/><path id="path44" class="cls-1" d="M97.84,25.86H95.23v6.52A4.68,4.68,0,0,0,96.42,36,4.89,4.89,0,0,0,100,37.45,4.8,4.8,0,0,0,103.67,36a4.68,4.68,0,0,0,1.19-3.65V25.86h-2.61v6.47c0,1.92-.69,2.8-2.22,2.8s-2.19-.88-2.19-2.8Z" transform="translate(-3.71 -12.56)"/><path id="path46" class="cls-1" d="M106.58,25.86V37.11h2.61V31.69c0-2.78.64-3.79,2.39-3.79s2.11.73,2.11,3v6.28h2.6v-6.9c0-3.16-1.31-4.65-4.07-4.65a3.86,3.86,0,0,0-3,1.33v-1h-2.63Z" transform="translate(-3.71 -12.56)"/></g><g id="g936"><path id="path48" class="cls-1" d="M21.22,23.42A6.62,6.62,0,1,0,27.84,30,6.63,6.63,0,0,0,21.22,23.42ZM10.9,30a10.32,10.32,0,0,1,20.63,0c0,.39,0,.75-.07,1.1A1.59,1.59,0,0,0,33.1,32.9C34.79,32.9,35,30.71,35,30a13.76,13.76,0,1,0-3.58,9.26l2.83,2.36A17.44,17.44,0,1,1,38.65,30c0,3.86-1.86,7-5.55,7a3.63,3.63,0,0,1-3.18-1.58A10.28,10.28,0,0,1,10.9,30Zm10.32-3a3,3,0,1,1-3,3A3,3,0,0,1,21.22,27Z" transform="translate(-3.71 -12.56)"/></g></g></svg>