<svg id="Capa_1" data-name="Capa 1" xmlns="http://www.w3.org/2000/svg" viewBox="0 0 228.27 78.38"><defs><style>.cls-1{fill:#1d1d1b;}.cls-2{fill:#fff;}</style></defs><title>symfony</title><g id="carrŽ"><path class="cls-1" d="M107.91,59.18A39.19,39.19,0,1,1,68.71,20h0A39.19,39.19,0,0,1,107.91,59.18Z" transform="translate(-29.53 -20)"/><path class="cls-2" d="M85.85,34.5c-4,.13-7.45,2.33-10,5.36a33.92,33.92,0,0,0-6.14,11.31c-2.46-2-4.35-4.62-8.29-5.75a10.14,10.14,0,0,0-9.19,1.67,8.37,8.37,0,0,0-2.81,4.1c-1.18,3.84,1.25,7.26,2.35,8.49l2.41,2.58A3.67,3.67,0,0,1,55.25,66a4.45,4.45,0,0,1-5.66,2.61c-1.14-.35-2.77-1.2-2.4-2.39A10.4,10.4,0,0,1,47.88,65a6,6,0,0,0,.3-.8,3.18,3.18,0,0,0-1.8-4,2.68,2.68,0,0,0-3.51,1.39,3.53,3.53,0,0,0-.15.46c-.69,2.22.38,6.24,6.06,8,6.66,2,12.3-1.58,13.09-6.31.51-3-.83-5.17-3.28-8l-2-2.21a3.65,3.65,0,0,1-.37-4.85c1.06-1.33,2.56-1.9,5-1.23,3.59,1,5.2,3.47,7.87,5.48-1.1,3.63-1.83,7.26-2.48,10.52l-.4,2.43c-1.91,10-3.37,15.54-7.16,18.7A6.13,6.13,0,0,1,55.54,86a1,1,0,0,1-1.15-.82h0c0-.6.49-.88.83-1.15a2.13,2.13,0,0,0,1.22-2.21A3.33,3.33,0,0,0,53,78.58h-.09A4.15,4.15,0,0,0,49,82.79c.1,2.77,2.68,4.85,6.57,4.72,2.09-.07,6.73-.92,11.31-6.37,5.34-6.24,6.83-13.4,7.95-18.63l1.25-6.92a21.27,21.27,0,0,0,2.25.16c6.64.14,10-3.29,10-5.8,0-1.51-1-3-2.43-3a2.77,2.77,0,0,0-2.63,2.14c-.3,1.39,2.11,2.65.23,3.88-1.35.87-3.75,1.48-7.14,1l.62-3.4c1.25-6.46,2.8-14.4,8.69-14.59.43,0,2,0,2,1.05,0,.35-.08.44-.48,1.23a2.78,2.78,0,0,0,.57,3.89,2.75,2.75,0,0,0,2,.53A3.38,3.38,0,0,0,92.94,39C92.84,36.17,89.83,34.37,85.85,34.5Z" transform="translate(-29.53 -20)"/><path class="cls-1" d="M209.92,51.2c5.64,0,9.43,4.08,9.43,9.72a9.45,9.45,0,0,1-18.89.61c0-.2,0-.41,0-.61C200.46,55.28,204.25,51.2,209.92,51.2Zm0,16.67c4,0,5.79-3.64,5.79-7,0-3.53-2.15-7-5.79-7s-5.82,3.42-5.82,7C204.1,64.23,205.88,67.87,209.92,67.87Z" transform="translate(-29.53 -20)"/><path class="cls-1" d="M200,52.93V51.64h-4.92V49.87c0-2.51.37-4.4,3.31-4.4h.18A1.5,1.5,0,0,0,200.12,44v0l.06-1.12a13.67,13.67,0,0,0-2.3-.22c-5.06,0-6.22,3-6.22,7.47V51.6H187.3V53a1.53,1.53,0,0,0,1.53,1.32h2.83V70.2h1.89a1.54,1.54,0,0,0,1.53-1.34V54.4h3.42A1.54,1.54,0,0,0,200,52.93Z" transform="translate(-29.53 -20)"/><path class="cls-1" d="M154.44,51.64h0a2,2,0,0,0-1.73,1.17L148,67h-.07l-4.61-14.18a2,2,0,0,0-1.73-1.17h-2.4L145.48,69a10,10,0,0,1,.65,2c0,.37-1,4.58-4.07,4.58h-.23a1.45,1.45,0,0,0-1.5,1.35L140.24,78a11.46,11.46,0,0,0,2.33.25c4.51,0,5.85-4.11,7.13-7.67l6.84-19Z" transform="translate(-29.53 -20)"/><path class="cls-1" d="M132.69,55.41c-2.82-1.45-5.91-2.43-6-5.34,0-3.09,2.85-3.9,5-3.89h0a11.21,11.21,0,0,1,2.45.26h0a1.49,1.49,0,0,0,1.54-1.33l.06-1.12a17.85,17.85,0,0,0-4.24-.54c-4.75,0-8.28,2.43-8.3,7,0,4,2.7,5.54,5.59,6.94s6,2.49,6,5.78-3.34,4.71-5.62,4.72a14.34,14.34,0,0,1-4-.73c-.76-.13-1.39.55-1.49,1.45l-.1,1a17,17,0,0,0,5.14,1h0c5.32,0,9.46-2.16,9.48-7.68C138.28,58.66,135.57,56.87,132.69,55.41Z" transform="translate(-29.53 -20)"/><path class="cls-1" d="M184.43,70.2h0a1.55,1.55,0,0,0,1.51-1.2V58.3c0-4-1.71-7.1-6.44-7.1a6.61,6.61,0,0,0-5.75,3.61,5.48,5.48,0,0,0-5.28-3.61,6.28,6.28,0,0,0-5.89,3.13h-.07V53.18A1.57,1.57,0,0,0,161,51.64h-1.7V70.2h1.86a1.54,1.54,0,0,0,1.55-1.53v0h0v-7.8c0-3.46,1.38-6.88,4.87-6.88,2.77,0,3.31,2.87,3.31,5.16V70.2h1.89a1.54,1.54,0,0,0,1.53-1.41V60.85c0-3.46,1.39-6.88,4.88-6.88,2.76,0,3.31,2.87,3.31,5.16V70.2Z" transform="translate(-29.53 -20)"/><path class="cls-1" d="M237.28,70.2h0a1.55,1.55,0,0,0,1.54-1.48V59.17c0-5-2.15-8-7-8a6.68,6.68,0,0,0-6.08,3.39h-.07V53.2h0a1.56,1.56,0,0,0-1.55-1.56h-1.77V70.2h1.89a1.56,1.56,0,0,0,1.54-1.43V61.61c0-4.51,1.75-7.64,5.64-7.64,3,.18,3.93,2.29,3.93,6.62V70.2Z" transform="translate(-29.53 -20)"/><path class="cls-1" d="M255.69,51.64h0A2,2,0,0,0,254,52.81L249.25,67h-.08l-4.6-14.18a2,2,0,0,0-1.73-1.17h-2.4L246.73,69a10,10,0,0,1,.66,2c0,.37-1,4.58-4.08,4.58h-.22a1.45,1.45,0,0,0-1.5,1.35l-.1,1.18a11.46,11.46,0,0,0,2.33.25c4.52,0,5.86-4.11,7.14-7.67l6.84-19Z" transform="translate(-29.53 -20)"/></g></svg>