<svg id="Capa_1" data-name="Capa 1" xmlns="http://www.w3.org/2000/svg" viewBox="0 0 512 470.79"><defs><style>.cls-1{fill:#b8a182;}</style></defs><title>dark</title><polygon points="87.77 88.53 83.19 65.13 215.48 65.13 132.75 360.71 131.4 365.43 201.46 365.43 202.74 360.71 297.65 0 0 0 27.73 88.53 87.77 88.53"/><polygon points="125.9 384.62 110.95 436.8 182.25 436.8 196.3 384.62 125.9 384.62"/><path class="cls-1" d="M360.87,97.33A151.13,151.13,0,0,0,209.74,248.46h0V470.79h63V371.21A151.13,151.13,0,1,0,360.87,97.33Zm0,239.3A88.17,88.17,0,1,1,449,248.46,88.17,88.17,0,0,1,360.87,336.63Z"/></svg>